<svg xmlns="http://www.w3.org/2000/svg" version="1.1" xmlns:xlink="http://www.w3.org/1999/xlink" xmlns:svgjs="http://svgjs.dev/svgjs" width="2000" height="1247" viewBox="0 0 2000 1247"><g transform="matrix(1,0,0,1,-1.2121034695737762,0.504858299595071)"><svg viewBox="0 0 396 247" data-background-color="#0a1627" preserveAspectRatio="xMidYMid meet" height="1247" width="2000" xmlns="http://www.w3.org/2000/svg" xmlns:xlink="http://www.w3.org/1999/xlink"><defs></defs><g id="tight-bounds" transform="matrix(1,0,0,1,0.23999648697559905,-0.09999999999999432)"><svg viewBox="0 0 395.52 247.2" height="247.2" width="395.52"><g><svg></svg></g><g><svg viewBox="0 0 395.52 247.2" height="247.2" width="395.52"><g><path d="M29.72 230.535h-28.72l0-73.943h28.72zM1 16.665h28.72l0 73.943-28.72 0zM122.6 16.665h28.72l0 73.943-28.72 0zM151.32 230.535h-28.72l0-73.943h28.72zM293.39 164.235h1.833l2.029-7.643 25.456 0-14.958 51.334h-26.886l-15.078-51.334 25.576 0zM320.277 69.827c5.296-20.369 13.443-34.321 24.442-41.857 10.999-7.536 27.599-11.305 49.801-11.305v73.943h-28.72v-41.557c-5.296 2.241-9.308 5.398-12.037 9.472-2.77 4.074-5.377 10.184-7.822 18.331l-4.008 13.754-27.171 0zM394.52 230.535h-28.72v-73.943h28.72zM242.367 76.854c-2.444-8.351-4.99-14.523-7.638-18.515-2.648-3.951-6.62-7.048-11.916-9.288l0 41.557-28.719 0v-73.943c22.202 0 38.761 3.809 49.678 11.427 10.877 7.659 19.065 21.57 24.565 41.735l5.515 20.781-27.445 0zM222.813 230.535h-28.719l0-73.943 28.719 0z" fill="#fe0039" data-fill-palette-color="tertiary"></path></g><g transform="matrix(1,0,0,1,0,98.06169516187705)"><svg viewBox="0 0 395.52 51.076609676245894" height="51.076609676245894" width="395.52"><g><svg viewBox="0 0 395.52 51.076609676245894" height="51.076609676245894" width="395.52"><g><svg viewBox="0 0 395.52 51.076609676245894" height="51.076609676245894" width="395.52"><g><svg viewBox="0 0 395.52 51.076609676245894" height="51.076609676245894" width="395.52"><g><svg viewBox="0 0 395.52 51.076609676245894" height="51.076609676245894" width="395.52"><g><svg viewBox="0 0 395.52 51.076609676245894" height="51.076609676245894" width="395.52"><g transform="matrix(1,0,0,1,0,0)"><svg width="395.52" viewBox="3 -35 274.8699951171875 35.5" height="51.076609676245894" data-palette-color="#fe0039"><path d="M3-35L7.4-35 7.4-24 11.65-24Q17.2-24 19.6-22.35L19.6-22.35Q21.75-20.9 22.33-18.88 22.9-16.85 22.9-13.55L22.9-13.55 22.9 0 18.5 0 18.5-13.5Q18.5-14.4 18.45-15.03 18.4-15.65 18.1-16.63 17.8-17.6 17.25-18.23 16.7-18.85 15.65-19.33 14.6-19.8 13.1-19.8L13.1-19.8 7.4-19.8 7.4 0 3 0 3-35ZM35.4-24L35.4 0 31 0 31-19.8 26.9-19.8 28.9-24 35.4-24ZM30.8-29L30.8-29Q30.15-29.85 30.15-30.85 30.15-31.85 30.8-32.68 31.45-33.5 32.8-33.5 34.15-33.5 34.8-32.68 35.45-31.85 35.45-30.85 35.45-29.85 34.8-29.03 34.15-28.2 32.8-28.2 31.45-28.2 30.8-29ZM45.75 0L41.35 0 41.35-13.65Q41.35-19.4 43.5-21.6L43.5-21.6Q44.55-22.7 46.05-23.25 47.55-23.8 48.67-23.9 49.8-24 51.75-24L51.75-24 56.15-24 56.15-19.8 50.85-19.8Q49.85-19.8 49.3-19.75 48.75-19.7 48-19.4 47.25-19.1 46.7-18.45L46.7-18.45Q45.75-17.25 45.75-13.65L45.75-13.65 45.75 0ZM71.14-24.5L71.14-24.5Q79.64-24.15 79.64-17.45L79.64-17.45Q79.64-9.1 68.69-9.1L68.69-9.1 66.64-9.1 66.64-12.95 69.04-12.95Q72.39-12.95 73.69-13.98 74.99-15 74.99-17.4L74.99-17.4Q74.99-18.95 73.84-19.73 72.69-20.5 70.89-20.5L70.89-20.5Q67.34-20.5 65.32-18 63.29-15.5 63.29-12L63.29-12Q63.29-8.3 65.47-6 67.64-3.7 71.14-3.7L71.14-3.7Q74.29-3.7 76.29-5.25L76.29-5.25 79.29-2.3Q75.84 0.5 71.14 0.5L71.14 0.5Q65.44 0.5 62.04-2.85 58.64-6.2 58.64-11.5L58.64-11.5Q58.64-17.4 61.99-21.05 65.34-24.7 71.14-24.5ZM96.54 0L96.54-24 118.59-24Q122.14-24 124.24-22.65L124.24-22.65Q126.39-21.3 127.06-19.15 127.74-17 127.74-14L127.74-14 127.74 0 123.34 0 123.34-14Q123.34-17.9 120.99-19.15L120.99-19.15Q119.79-19.8 116.14-19.8L116.14-19.8 114.09-19.8 114.09 0 109.69 0 109.69-19.8 100.94-19.8 100.94 0 96.54 0ZM153.64-24L153.64 0 144.99 0Q139.44 0 137.04-1.65L137.04-1.65Q134.89-3.1 134.31-5.13 133.74-7.15 133.74-10.45L133.74-10.45 133.74-24 138.14-24 138.14-10.5Q138.14-9.6 138.19-8.97 138.24-8.35 138.54-7.38 138.84-6.4 139.39-5.78 139.94-5.15 140.99-4.67 142.04-4.2 143.54-4.2L143.54-4.2 149.24-4.2 149.24-24 153.64-24ZM167.68-24L176.53-24 176.53-19.8 167.68-19.8Q166.23-19.8 165.18-19.25 164.13-18.7 164.13-17.7L164.13-17.7Q164.13-17.1 164.38-16.63 164.63-16.15 164.96-15.85 165.28-15.55 165.96-15.23 166.63-14.9 167.01-14.78 167.38-14.65 170.18-13.75 172.98-12.85 174.33-12.25 175.68-11.65 176.41-10.63 177.13-9.6 177.33-8.63 177.53-7.65 177.53-6.7L177.53-6.7Q177.53 0 168.33 0L168.33 0 159.68 0 159.68-4.2 168.33-4.2Q173.03-4.2 173.03-6.7L173.03-6.7Q173.03-7.9 171.66-8.7 170.28-9.5 168.31-10.05 166.33-10.6 164.36-11.33 162.38-12.05 161.01-13.68 159.63-15.3 159.63-17.7L159.63-17.7Q159.63-20.75 161.98-22.38 164.33-24 167.68-24L167.68-24ZM189.03-24L189.03 0 184.63 0 184.63-19.8 180.53-19.8 182.53-24 189.03-24ZM184.43-29L184.43-29Q183.78-29.85 183.78-30.85 183.78-31.85 184.43-32.68 185.08-33.5 186.43-33.5 187.78-33.5 188.43-32.68 189.08-31.85 189.08-30.85 189.08-29.85 188.43-29.03 187.78-28.2 186.43-28.2 185.08-28.2 184.43-29ZM212.13-5.25L212.13-5.25 215.13-2.3Q211.68 0.5 207.23 0.5L207.23 0.5Q201.68 0.5 198.33-3.08 194.98-6.65 194.98-12L194.98-12Q194.98-17.25 198.5-20.88 202.03-24.5 207.23-24.5L207.23-24.5Q211.68-24.5 215.13-21.7L215.13-21.7 212.18-18.7Q210.08-20.3 207.23-20.3L207.23-20.3Q203.78-20.3 201.75-18.03 199.73-15.75 199.73-12 199.73-8.25 201.75-5.98 203.78-3.7 207.23-3.7L207.23-3.7Q210.13-3.7 212.13-5.25ZM225.88-24L225.88 0 221.48 0 221.48-19.8 217.38-19.8 219.38-24 225.88-24ZM221.28-29L221.28-29Q220.63-29.85 220.63-30.85 220.63-31.85 221.28-32.68 221.93-33.5 223.28-33.5 224.63-33.5 225.28-32.68 225.93-31.85 225.93-30.85 225.93-29.85 225.28-29.03 224.63-28.2 223.28-28.2 221.93-28.2 221.28-29ZM245.92-14.1L245.92-14.1 245.92-9.6Q244.02-11.05 241.27-11.05L241.27-11.05Q238.92-11.05 237.62-10.13 236.32-9.2 236.32-7.5L236.32-7.5Q236.32-4.2 241.22-4.2L241.22-4.2 247.82-4.2 247.82-13.75Q247.82-19.8 241.92-19.8L241.92-19.8 233.92-19.8 233.92-24 242.17-24Q247.02-24 249.62-21.6 252.22-19.2 252.22-14.7L252.22-14.7 252.22 0 241.07 0Q236.82 0 234.32-1.9 231.82-3.8 231.82-7.45 231.82-11.1 234.47-13 237.12-14.9 241.12-14.9L241.12-14.9Q243.37-14.9 245.92-14.1ZM257.97 0L257.97-24 266.62-24Q272.17-24 274.57-22.35L274.57-22.35Q276.72-20.9 277.3-18.88 277.87-16.85 277.87-13.55L277.87-13.55 277.87 0 273.47 0 273.47-13.5Q273.47-14.4 273.42-15.03 273.37-15.65 273.07-16.63 272.77-17.6 272.22-18.23 271.67-18.85 270.62-19.33 269.57-19.8 268.07-19.8L268.07-19.8 262.37-19.8 262.37 0 257.97 0Z" opacity="1" transform="matrix(1,0,0,1,0,0)" fill="#fe0039" class="undefined-text-0" data-fill-palette-color="primary" id="text-0"></path></svg></g></svg></g></svg></g></svg></g></svg></g></svg></g></svg></g></svg></g></svg><rect width="395.52" height="247.2" fill="none" stroke="none" visibility="hidden"></rect></g></svg></g></svg>