<svg xmlns="http://www.w3.org/2000/svg" version="1.1" xmlns:xlink="http://www.w3.org/1999/xlink" xmlns:svgjs="http://svgjs.dev/svgjs" width="1000" height="270" viewBox="0 0 1000 270"><g transform="matrix(1,0,0,1,-0.6060485091456371,0.36523217998166047)"><svg viewBox="0 0 396 107" data-background-color="#ffffff" preserveAspectRatio="xMidYMid meet" height="270" width="1000" xmlns="http://www.w3.org/2000/svg" xmlns:xlink="http://www.w3.org/1999/xlink"><defs></defs><g id="tight-bounds" transform="matrix(1,0,0,1,0.24000479037840705,-0.14474016021495117)"><svg viewBox="0 0 395.52 107.28948032042993" height="107.28948032042993" width="395.52"><g><svg viewBox="0 0 541.3583671920153 146.8498631754344" height="107.28948032042993" width="395.52"><g><rect width="6.07916583481891" height="146.8498631754344" x="123.84515466918884" y="0" fill="#ff5858" opacity="1" stroke-width="0" stroke="transparent" fill-opacity="1" class="rect-o-0" data-fill-palette-color="primary" rx="1%" id="o-0" data-palette-color="#ff5858"></rect></g><g transform="matrix(1,0,0,1,145.83836719201537,0.36529816710306307)"><svg viewBox="0 0 395.52 146.11926684122827" height="146.11926684122827" width="395.52"><g><svg viewBox="0 0 395.52 146.11926684122827" height="146.11926684122827" width="395.52"><g><svg viewBox="0 0 395.52 146.11926684122827" height="146.11926684122827" width="395.52"><g transform="matrix(1,0,0,1,0,0)"><svg width="395.52" viewBox="1.7999992370605469 -35.04999923706055 210.0500030517578 74.14999389648438" height="146.11926684122827" data-palette-color="#ff5858"><svg></svg><svg></svg><g class="undefined-text-0" data-fill-palette-color="primary" id="text-0"><path d="M29.65-35v35h-7.25v-15.3h-11.6v15.3h-7.25v-35h7.25v13.95h11.6v-13.95zM43.25-35v35h-7.25v-35zM57.45-15.2v0h-0.6v15.15h-7.25v-35h11.1c3.767 0 6.583 0.823 8.45 2.47 1.867 1.653 2.8 4.013 2.8 7.08v0c0 1.867-0.65 3.573-1.95 5.12-1.3 1.553-2.883 2.447-4.75 2.68v0c1.333 0.367 2.367 0.973 3.1 1.82 0.733 0.853 1.5 2.23 2.3 4.13v0l4.95 11.7h-7.45l-4.85-11.2c-0.7-1.6-1.44-2.66-2.22-3.18-0.787-0.513-1.997-0.77-3.63-0.77zM60.5-29.35v0h-3.65v8.45h3.15c1.333 0 2.377-0.433 3.13-1.3 0.747-0.867 1.12-1.933 1.12-3.2v0c0-2.633-1.25-3.95-3.75-3.95zM100.6-5.75v5.75h-20.85v-35h20.85v5.75h-13.6v7.35h12.35v5.85h-12.35v10.3zM134.5-35l10.6 35h-7.2l-2.5-8.55h-10.55l-2.45 8.55h-6.95l10.5-35zM126.3-14.3h7.75l-3.85-14.4z" data-fill-palette-color="primary" fill="#ff5858" opacity="1"></path><path d="M35.05 3.8v35h-7.25v-21.7l-6.25 13.5h-6.3l-6.25-13.45v21.65h-7.2v-35h7.7l8.95 18.75 9.35-18.75zM63.15 35.77c-2.233 2.22-5.467 3.33-9.7 3.33-4.233 0-7.467-1.11-9.7-3.33-2.233-2.213-3.35-5.503-3.35-9.87v0-22.1h7.3v22.7c0 2.2 0.493 3.89 1.48 5.07 0.98 1.187 2.387 1.78 4.22 1.78 1.833 0 3.26-0.593 4.28-1.78 1.013-1.18 1.52-2.87 1.52-5.07v0-22.7h7.3v22.1c0 4.367-1.117 7.657-3.35 9.87zM93.2 5.05v0l-1.2 5.85-3.1-0.85c-2.2-0.5-4.117-0.75-5.75-0.75v0c-2.267 0-3.4 1.083-3.4 3.25v0c0 0.833 0.393 1.59 1.18 2.27 0.78 0.687 1.77 1.253 2.97 1.7 1.2 0.453 2.483 1.013 3.85 1.68 1.367 0.667 2.65 1.383 3.85 2.15 1.2 0.767 2.193 1.817 2.98 3.15 0.78 1.333 1.17 2.867 1.17 4.6v0c0 3.433-1.107 6.123-3.32 8.07-2.22 1.953-5.347 2.93-9.38 2.93v0c-2.067 0-4.123-0.277-6.17-0.83-2.053-0.547-3.747-1.187-5.08-1.92v0l2.15-5.35c3.067 1.4 6.1 2.1 9.1 2.1v0c1.7 0 3.033-0.393 4-1.18 0.967-0.78 1.45-1.787 1.45-3.02 0-1.233-0.55-2.26-1.65-3.08-1.1-0.813-2.433-1.547-4-2.2-1.567-0.647-3.133-1.38-4.7-2.2-1.567-0.813-2.9-1.963-4-3.45-1.1-1.48-1.65-3.237-1.65-5.27v0c0-3.033 0.95-5.36 2.85-6.98 1.9-1.613 4.46-2.42 7.68-2.42 3.213 0 6.603 0.583 10.17 1.75zM107.65 3.8v35h-7.25v-35zM127.75 39.1v0c-5.1 0-9.007-1.61-11.72-4.83-2.72-3.213-4.08-7.57-4.08-13.07 0-5.5 1.443-9.85 4.33-13.05 2.88-3.2 6.887-4.8 12.02-4.8v0c2.8 0 5.583 0.483 8.35 1.45v0l-1.4 5.6c-2.033-0.867-4.433-1.3-7.2-1.3-2.767 0-4.933 1.05-6.5 3.15-1.567 2.1-2.35 5-2.35 8.7 0 3.7 0.733 6.69 2.2 8.97 1.467 2.287 3.533 3.43 6.2 3.43v0c2 0 4.85-0.65 8.55-1.95v0l1.5 5.1c-3.033 1.733-6.333 2.6-9.9 2.6zM149.7 3.8v35h-7.25v-35zM171.2 3.8l10.6 35h-7.2l-2.5-8.55h-10.55l-2.45 8.55h-6.95l10.5-35zM163 24.5h7.75l-3.85-14.4zM211.85 3.8v35.05h-7.6l-11.85-21.55v21.5h-7.4v-35h7.4l12.2 22.6v-22.6z" data-fill-palette-color="primary" fill="#ff5858" opacity="1"></path></g></svg></g></svg></g></svg></g></svg></g><g transform="matrix(1,0,0,1,0,0.36529816710306307)"><svg viewBox="0 0 107.93110798118123 146.11926684122827" height="146.11926684122827" width="107.93110798118123"><g><svg xmlns="http://www.w3.org/2000/svg" xmlns:xlink="http://www.w3.org/1999/xlink" version="1.1" x="0" y="0" viewBox="8.261387825012207 0 37.16151809692383 50.30999755859375" enable-background="new 0 0 50.4 50.4" xml:space="preserve" width="107.93110798118123" height="146.11926684122827" class="icon-icon-0" data-fill-palette-color="accent" id="icon-0"><g fill="#ed2647" data-fill-palette-color="accent"><path d="M23.787 0c2.101 0 3.809 1.706 3.809 3.808 0 2.104-1.708 3.803-3.809 3.803-2.099 0-3.803-1.7-3.803-3.803C19.984 1.706 21.688 0 23.787 0z" fill="#ed2647" data-fill-palette-color="accent"></path></g><g fill="#ed2647" data-fill-palette-color="accent"><rect x="41.025" y="9.928" transform="matrix(0.4479 0.8941 -0.8941 0.4479 34.6833 -30.9597)" width="2.771" height="5.352" fill="#ed2647" data-fill-palette-color="accent"></rect><circle cx="22.772" cy="22.241" r="2.3" fill="#ed2647" data-fill-palette-color="accent"></circle></g><g fill="#ed2647" data-fill-palette-color="accent"><path d="M40.413 14.822c0 0 0-0.001-0.001-0.002l-0.001 0c-0.212-0.422-0.571-0.772-1.05-0.951-1.006-0.378-2.127 0.132-2.504 1.138l-0.735 1.961-7.82 3.917v0c0.891 2.598-0.05 4.19-1.261 4.797-0.633 0.318-2.111 0.45-2.111 0.45-0.046 0.008-1.15 0.201-1.934 0.615-0.179 0.095-0.35 0.21-0.513 0.342-0.003 0.002-0.004 0.004-0.006 0.006-0.162 0.13-0.315 0.279-0.459 0.443v0.001c-0.265 0.301-0.499 0.652-0.688 1.054l-0.164 0.435c-0.5 1.359-1.5 2.52-2.669 3.106-0.594 0.297-1.292 0.454-2.015 0.454h-0.001c-1.883-0.001-4.458-1.123-6.037-4.276-0.977-1.946-1.233-3.84-0.742-5.475 0.391-1.303 1.268-2.39 2.413-3.022l4.161 4.596c0.071 0.077 0.15 0.139 0.228 0.204l1.645 3.28 0.89-0.446-1.179-2.352c0.492-0.007 0.982-0.184 1.376-0.54 0.856-0.776 0.922-2.101 0.146-2.958l-1.751-1.934c0.594 0.014 1.166-0.089 1.656-0.322 0.802-0.379 1.618-1.147 1.652-1.18 0 0 0.683-0.814 1.08-1.092 0.171-0.121 0.351-0.233 0.544-0.33 0.159-0.08 0.32-0.14 0.482-0.191 0.292-0.093 0.586-0.145 0.881-0.145 1.266 0 2.446 0.868 3.444 2.52l8.15-4.083-2.167-4.627c-0.228-0.354-0.559-0.735-1.01-0.996-0.522-0.334-1.322-0.568-2.497-0.642h-1.756v9.264c-1.452-2.131-3.024-2.632-4.165-2.632-0.296 0-0.59 0.037-0.881 0.102V8.578l-3.831 0.018c-0.823 0.012-1.646 0.199-2.394 0.76l-6.626 4.923c-0.472 0.353-0.774 0.889-0.831 1.476-0.058 0.587 0.136 1.171 0.531 1.609l1.4 1.546c-1.298 0.797-2.285 2.076-2.738 3.585-0.58 1.933-0.297 4.129 0.816 6.355 1.824 3.641 4.869 4.938 7.108 4.938h0.001c0.909 0 1.791-0.201 2.551-0.581 0.313-0.157 0.592-0.339 0.853-0.53 0 0.001-0.002 0.002-0.003 0.003l0.021 17.63h4.75V30.182h1.755v20.127h4.745V26.598h2.206v-7.198l1.375 2.936c0.32 0.686 1.008 1.121 1.761 1.121 0.025 0 0.05 0 0.077-0.001 0.781-0.031 1.47-0.527 1.744-1.261l2.184-5.82c0.001-0.004 0.001-0.008 0.003-0.012C40.558 16.175 40.73 15.39 40.413 14.822zM18.427 13.363v5.016c-0.214 0.06-0.44 0.101-0.688 0.101-0.211 0-0.427-0.022-0.595-0.055l-0.439-0.127c-0.134-0.04-0.272-0.073-0.411-0.105l-1.75-1.933L18.427 13.363z" fill="#ed2647" data-fill-palette-color="accent"></path></g></svg></g></svg></g></svg></g></svg><rect width="395.52" height="107.28948032042993" fill="none" stroke="none" visibility="hidden"></rect></g></svg></g></svg>